<?xml version="1.0" encoding="UTF-8"?>
<svg id="Layer_1" xmlns="http://www.w3.org/2000/svg" version="1.1" viewBox="0 0 160 160">
  <!-- Generator: Adobe Illustrator 29.2.1, SVG Export Plug-In . SVG Version: 2.1.0 Build 116)  -->
  <defs>
    <style>
      .st0 {
        fill: #39b54a;
      }

      .st1 {
        fill: #26aa00;
      }

      .st2 {
        fill: #006837;
      }

      .st3 {
        fill: #1b1464;
      }

      .st4 {
        fill: #005989;
      }

      .st5 {
        font-family: Verdana, Verdana;
        font-size: 15px;
      }
    </style>
  </defs>
  <g>
    <path class="st3" d="M121.5,75.31c0,22.64-18.36,41-41,41-15.39,0-28.81-8.49-35.82-21.04,6.53-2.39,12.46-5.93,17.46-10.41,5.13-4.59,8.18-9.3,9.44-11.43.04-.07.08-.14.12-.21,0,0,.15-.26.31-.54.06-.1,2.13-3.75,3.48-6.39,2.98-5.78,3.22-8.08,4-8,1.12.11.84,4.92,3,12,.87,2.83,1.83,5.07,2.5,6.5,1.92-2.7,7.28-9.48,17-13,6.96-2.52,13.23-2.33,17.32-1.74,1.41,4.15,2.18,8.61,2.18,13.24Z"/>
    <path class="st2" d="M73,65.81c-5.58,12.31-16.26,21.68-29.32,26.46-3.22-5.77-5.09-12.39-5.18-19.44v-.52c0-18.25,11.93-33.72,28.42-39.03,2.67-.86,5.46-1.46,8.34-1.75,2.09,7.81,3.83,20.85-2.26,34.28Z"/>
    <path class="st0" d="M117.18,55.94c-5.53-12.6-17.21-21.87-31.22-24.05-3.03-3.33-6.05-6.65-9.08-9.98.5,2.56,1.23,6.37,2.05,10.99,1.23,6.87,1.97,11.65,2.57,15.41.88,5.47,2.19,13.26,4,23,.95-.93,2.32-2.19,4.06-3.57,1.9-1.5,6.09-4.96,11.5-6.94,6.95-2.55,13.22-2.39,17.31-1.82-.36-1.03-.76-2.05-1.19-3.03Z"/>
  </g>
  <text class="st5" transform="translate(37.33 133.54)"><tspan x="0" y="0">My</tspan><tspan class="st1" x="21.52" y="0">Nutri</tspan><tspan class="st4" x="58.66" y="0">Life</tspan></text>
</svg>